<svg width="16" height="20" viewBox="0 0 16 20" fill="none" xmlns="http://www.w3.org/2000/svg">
<path d="M7.82812 10.4722C8.8289 10.4722 9.78869 10.0332 10.4963 9.25183C11.204 8.47043 11.6016 7.41062 11.6016 6.30556C11.6016 5.20049 11.204 4.14068 10.4963 3.35928C9.78869 2.57788 8.8289 2.13889 7.82812 2.13889C6.82735 2.13889 5.86756 2.57788 5.1599 3.35928C4.45224 4.14068 4.05469 5.20049 4.05469 6.30556C4.05469 7.41062 4.45224 8.47043 5.1599 9.25183C5.86756 10.0332 6.82735 10.4722 7.82812 10.4722ZM7.82812 11.8611C6.49375 11.8611 5.21404 11.2758 4.27049 10.2339C3.32695 9.19206 2.79688 7.77898 2.79688 6.30556C2.79688 4.83213 3.32695 3.41905 4.27049 2.37718C5.21404 1.33532 6.49375 0.75 7.82812 0.75C9.1625 0.75 10.4422 1.33532 11.3858 2.37718C12.3293 3.41905 12.8594 4.83213 12.8594 6.30556C12.8594 7.77898 12.3293 9.19206 11.3858 10.2339C10.4422 11.2758 9.1625 11.8611 7.82812 11.8611ZM14.1172 18.8056V16.7222C14.1172 16.1697 13.9184 15.6398 13.5646 15.2491C13.2108 14.8584 12.7309 14.6389 12.2305 14.6389H3.42578C2.92539 14.6389 2.4455 14.8584 2.09167 15.2491C1.73784 15.6398 1.53906 16.1697 1.53906 16.7222V18.8056C1.53906 18.9897 1.4728 19.1664 1.35486 19.2966C1.23692 19.4268 1.07695 19.5 0.910156 19.5C0.74336 19.5 0.583395 19.4268 0.465452 19.2966C0.34751 19.1664 0.28125 18.9897 0.28125 18.8056V16.7222C0.28125 15.8013 0.612548 14.9182 1.20226 14.267C1.79198 13.6158 2.5918 13.25 3.42578 13.25H12.2305C13.0644 13.25 13.8643 13.6158 14.454 14.267C15.0437 14.9182 15.375 15.8013 15.375 16.7222V18.8056C15.375 18.9897 15.3087 19.1664 15.1908 19.2966C15.0729 19.4268 14.9129 19.5 14.7461 19.5C14.5793 19.5 14.4193 19.4268 14.3014 19.2966C14.1834 19.1664 14.1172 18.9897 14.1172 18.8056Z" fill="black"/>
</svg>
