<svg width="21" height="21" viewBox="0 0 21 21" fill="none" xmlns="http://www.w3.org/2000/svg">
<path d="M3.9375 10.5L3.32308 10.0699L3.02201 10.5L3.32308 10.9301L3.9375 10.5ZM9.84375 11.25C10.258 11.25 10.5938 10.9142 10.5938 10.5C10.5938 10.0858 10.258 9.75 9.84375 9.75V11.25ZM5.94808 6.3199L3.32308 10.0699L4.55192 10.9301L7.17692 7.1801L5.94808 6.3199ZM3.32308 10.9301L5.94808 14.6801L7.17692 13.8199L4.55192 10.0699L3.32308 10.9301ZM3.9375 11.25H9.84375V9.75H3.9375V11.25Z" fill="black"/>
<path d="M9.1875 7.59895V7.01261C9.1875 6.19947 9.1875 5.79291 9.31445 5.4538C9.47161 5.034 9.76523 4.67917 10.1482 4.44624C10.4576 4.25808 10.857 4.18201 11.6557 4.02986V4.02986C13.3416 3.70874 14.1846 3.54817 14.8555 3.73208C15.6854 3.95954 16.3776 4.53235 16.7563 5.30496C17.0625 5.92966 17.0625 6.78776 17.0625 8.50398V12.496C17.0625 14.2122 17.0625 15.0703 16.7563 15.695C16.3776 16.4677 15.6854 17.0405 14.8555 17.2679C14.1846 17.4518 13.3416 17.2913 11.6557 16.9701V16.9701C10.857 16.818 10.4576 16.7419 10.1482 16.5538C9.76523 16.3208 9.47161 15.966 9.31445 15.5462C9.1875 15.2071 9.1875 14.8005 9.1875 13.9874V13.5495" stroke="black" stroke-width="1.5"/>
</svg>
