<svg width="17" height="15" viewBox="0 0 17 15" fill="none" xmlns="http://www.w3.org/2000/svg">
<path d="M2.2716 9.67611C2.37467 9.64639 2.4826 9.6306 2.59375 9.6306C3.31862 9.6306 3.90625 10.3022 3.90625 11.1306V12.6306C3.90625 13.459 3.31862 14.1306 2.59375 14.1306C1.86888 14.1306 1.28125 13.459 1.28125 12.6306V11.1306C1.28125 10.4292 1.70248 9.84024 2.2716 9.67611ZM2.2716 9.67611L2.19776 9.11352C1.68706 5.22247 3.97279 1.57132 7.36001 0.867478C8.11382 0.710841 8.88618 0.710841 9.63999 0.867478C13.0272 1.57132 15.3129 5.22247 14.8022 9.11352L14.7284 9.67611M14.7284 9.67611C14.6253 9.64639 14.5174 9.6306 14.4062 9.6306C13.6814 9.6306 13.0938 10.3022 13.0938 11.1306V12.6306C13.0938 13.459 13.6814 14.1306 14.4062 14.1306C15.1311 14.1306 15.7188 13.459 15.7188 12.6306V11.1306C15.7188 10.4292 15.2975 9.84024 14.7284 9.67611Z" stroke="black" stroke-width="1.5"/>
</svg>
