<svg width="15" height="17" viewBox="0 0 15 17" fill="none" xmlns="http://www.w3.org/2000/svg">
<path d="M2.44037 15.2838L2.88933 14.683L2.44037 15.2838ZM1.63379 14.4542L2.24638 14.0215L1.63379 14.4542ZM13.3662 14.4542L12.7536 14.0215L13.3662 14.4542ZM12.5596 15.2838L12.1107 14.683L12.5596 15.2838ZM12.5596 1.71619L12.1107 2.31696L12.5596 1.71619ZM13.3662 2.54581L12.7536 2.97851L13.3662 2.54581ZM2.44037 1.71619L2.88933 2.31696L2.44037 1.71619ZM1.63379 2.54581L2.24638 2.97851L1.63379 2.54581ZM4.58333 10.75C4.16912 10.75 3.83333 11.0858 3.83333 11.5C3.83333 11.9142 4.16912 12.25 4.58333 12.25V10.75ZM10.4167 12.25C10.8309 12.25 11.1667 11.9142 11.1667 11.5C11.1667 11.0858 10.8309 10.75 10.4167 10.75V12.25ZM4.58333 7.75C4.16912 7.75 3.83333 8.08579 3.83333 8.5C3.83333 8.91421 4.16912 9.25 4.58333 9.25V7.75ZM10.4167 9.25C10.8309 9.25 11.1667 8.91421 11.1667 8.5C11.1667 8.08579 10.8309 7.75 10.4167 7.75V9.25ZM4.58333 4.75C4.16912 4.75 3.83333 5.08579 3.83333 5.5C3.83333 5.91421 4.16912 6.25 4.58333 6.25V4.75ZM10.4167 6.25C10.8309 6.25 11.1667 5.91421 11.1667 5.5C11.1667 5.08579 10.8309 4.75 10.4167 4.75V6.25ZM13.3125 7.75V9.25H14.8125V7.75H13.3125ZM1.6875 9.25V7.75H0.1875V9.25H1.6875ZM7.5 15.25C6.11574 15.25 5.13949 15.2489 4.38732 15.1651C3.65047 15.083 3.21855 14.9291 2.88933 14.683L1.9914 15.8846C2.62055 16.3547 3.35136 16.5589 4.22119 16.6559C5.0757 16.7511 6.15008 16.75 7.5 16.75V15.25ZM0.1875 9.25C0.1875 10.6399 0.186526 11.7409 0.278663 12.6156C0.372151 13.5032 0.568358 14.2458 1.0212 14.8869L2.24638 14.0215C2.00293 13.6768 1.851 13.2235 1.77041 12.4585C1.68847 11.6806 1.6875 10.6724 1.6875 9.25H0.1875ZM2.88933 14.683C2.64339 14.4992 2.42627 14.2762 2.24638 14.0215L1.0212 14.8869C1.29106 15.2689 1.61832 15.6058 1.9914 15.8846L2.88933 14.683ZM13.3125 9.25C13.3125 10.6724 13.3115 11.6806 13.2296 12.4585C13.149 13.2235 12.9971 13.6768 12.7536 14.0215L13.9788 14.8869C14.4316 14.2458 14.6278 13.5032 14.7213 12.6156C14.8135 11.7409 14.8125 10.6399 14.8125 9.25H13.3125ZM7.5 16.75C8.84992 16.75 9.9243 16.7511 10.7788 16.6559C11.6486 16.5589 12.3795 16.3547 13.0086 15.8846L12.1107 14.683C11.7814 14.9291 11.3495 15.083 10.6127 15.1651C9.86051 15.2489 8.88426 15.25 7.5 15.25V16.75ZM12.7536 14.0215C12.5737 14.2762 12.3566 14.4992 12.1107 14.683L13.0086 15.8846C13.3817 15.6058 13.7089 15.2689 13.9788 14.8869L12.7536 14.0215ZM7.5 1.75C8.88426 1.75 9.86051 1.75109 10.6127 1.83491C11.3495 1.91702 11.7814 2.07094 12.1107 2.31696L13.0086 1.11541C12.3795 0.645251 11.6486 0.44107 10.7788 0.344137C9.9243 0.248912 8.84992 0.25 7.5 0.25V1.75ZM14.8125 7.75C14.8125 6.3601 14.8135 5.25909 14.7213 4.38438C14.6278 3.49684 14.4316 2.7542 13.9788 2.1131L12.7536 2.97851C12.9971 3.32316 13.149 3.77646 13.2296 4.54151C13.3115 5.31939 13.3125 6.3276 13.3125 7.75H14.8125ZM12.1107 2.31696C12.3566 2.50075 12.5737 2.72385 12.7536 2.97851L13.9788 2.1131C13.7089 1.73105 13.3817 1.39422 13.0086 1.11541L12.1107 2.31696ZM7.5 0.25C6.15008 0.25 5.0757 0.248912 4.22119 0.344137C3.35136 0.44107 2.62055 0.645251 1.9914 1.11541L2.88933 2.31696C3.21855 2.07094 3.65047 1.91702 4.38732 1.83491C5.13949 1.75109 6.11574 1.75 7.5 1.75V0.25ZM1.6875 7.75C1.6875 6.3276 1.68847 5.31939 1.77041 4.54151C1.851 3.77647 2.00293 3.32316 2.24638 2.97851L1.0212 2.1131C0.568358 2.7542 0.372151 3.49684 0.278663 4.38438C0.186526 5.25909 0.1875 6.3601 0.1875 7.75H1.6875ZM1.9914 1.11541C1.61832 1.39422 1.29106 1.73105 1.0212 2.1131L2.24638 2.97851C2.42627 2.72385 2.64339 2.50075 2.88933 2.31696L1.9914 1.11541ZM4.58333 12.25H10.4167V10.75H4.58333V12.25ZM4.58333 9.25H10.4167V7.75H4.58333V9.25ZM4.58333 6.25H10.4167V4.75H4.58333V6.25Z" fill="black"/>
</svg>
