<svg width="16" height="18" viewBox="0 0 16 18" fill="none" xmlns="http://www.w3.org/2000/svg">
<path d="M4.01407 3.73549L3.81519 4.45865L4.01407 3.73549ZM6.3209 2.27427L5.59505 2.08546L6.3209 2.27427ZM2.1728 7.23447L2.73517 6.73824L2.1728 7.23447ZM2.1728 10.1569L1.61044 9.66069H1.61044L2.1728 10.1569ZM4.01407 13.6559L4.21294 14.379L4.01407 13.6559ZM6.3209 15.1171L5.59505 15.3059L6.3209 15.1171ZM10.0034 15.1171L10.7293 15.3059L10.0034 15.1171ZM12.3103 13.6559L12.5091 12.9327L12.3103 13.6559ZM14.1515 10.1569L13.5892 10.6531L14.1515 10.1569ZM14.1515 7.23447L13.5892 6.73824L14.1515 7.23447ZM12.3103 3.73549L12.1114 3.01234L12.3103 3.73549ZM10.0034 2.27427L10.7293 2.08546L10.0034 2.27427ZM3.81519 4.45865C5.27557 4.86027 6.67273 3.90094 7.04674 2.46307L5.59505 2.08546C5.40189 2.82803 4.75726 3.16204 4.21294 3.01234L3.81519 4.45865ZM2.73517 6.73824C2.30028 6.24539 2.28316 5.58674 2.55397 5.07211C2.82192 4.56293 3.29303 4.31505 3.81519 4.45865L4.21294 3.01234C2.86654 2.64207 1.74707 3.38442 1.22655 4.37358C0.708893 5.35729 0.705419 6.70506 1.61044 7.7307L2.73517 6.73824ZM2.73517 10.6531C3.70411 9.55507 3.70411 7.83631 2.73517 6.73824L1.61044 7.7307C2.07902 8.26173 2.07902 9.12965 1.61044 9.66069L2.73517 10.6531ZM3.81519 12.9327C3.29303 13.0763 2.82192 12.8285 2.55397 12.3193C2.28316 11.8046 2.30028 11.146 2.73517 10.6531L1.61044 9.66069C0.705418 10.6863 0.708892 12.0341 1.22655 13.0178C1.74707 14.007 2.86654 14.7493 4.21294 14.379L3.81519 12.9327ZM7.04674 14.9283C6.67273 13.4904 5.27557 12.5311 3.81519 12.9327L4.21294 14.379C4.75726 14.2293 5.4019 14.5634 5.59505 15.3059L7.04674 14.9283ZM9.27758 14.9283C9.09929 15.6137 8.60939 15.8914 8.16216 15.8914C7.71493 15.8914 7.22504 15.6137 7.04674 14.9283L5.59505 15.3059C5.94541 16.6528 7.03245 17.3914 8.16216 17.3914C9.29187 17.3914 10.3789 16.6528 10.7293 15.3059L9.27758 14.9283ZM12.5091 12.9327C11.0487 12.5311 9.6516 13.4904 9.27758 14.9283L10.7293 15.3059C10.9224 14.5634 11.5671 14.2293 12.1114 14.379L12.5091 12.9327ZM13.5892 10.6531C14.024 11.146 14.0412 11.8046 13.7704 12.3193C13.5024 12.8285 13.0313 13.0763 12.5091 12.9327L12.1114 14.379C13.4578 14.7493 14.5772 14.007 15.0978 13.0178C15.6154 12.0341 15.6189 10.6863 14.7139 9.66069L13.5892 10.6531ZM13.5892 6.73824C12.6202 7.83631 12.6202 9.55507 13.5892 10.6531L14.7139 9.66069C14.2453 9.12965 14.2453 8.26173 14.7139 7.7307L13.5892 6.73824ZM12.5091 4.45865C13.0313 4.31505 13.5024 4.56293 13.7704 5.07211C14.0412 5.58674 14.024 6.24539 13.5892 6.73824L14.7139 7.7307C15.6189 6.70506 15.6154 5.35729 15.0978 4.37358C14.5772 3.38442 13.4578 2.64207 12.1114 3.01234L12.5091 4.45865ZM9.27758 2.46307C9.6516 3.90094 11.0487 4.86027 12.5091 4.45865L12.1114 3.01234C11.5671 3.16204 10.9224 2.82803 10.7293 2.08546L9.27758 2.46307ZM10.7293 2.08546C10.3789 0.738539 9.29187 -2.38419e-07 8.16216 -5.96046e-08C7.03245 5.96046e-08 5.94541 0.738539 5.59505 2.08546L7.04674 2.46307C7.22504 1.77764 7.71493 1.5 8.16216 1.5C8.60939 1.5 9.09929 1.77764 9.27758 2.46307L10.7293 2.08546ZM5.36138 8.69569C5.36138 10.2856 6.55141 11.6957 8.16216 11.6957V10.1957C7.50768 10.1957 6.86138 9.59107 6.86138 8.69569H5.36138ZM8.16216 11.6957C9.77291 11.6957 10.9629 10.2856 10.9629 8.69569H9.46294C9.46294 9.59107 8.81664 10.1957 8.16216 10.1957V11.6957ZM10.9629 8.69569C10.9629 7.10579 9.77291 5.69569 8.16216 5.69569V7.19569C8.81664 7.19569 9.46294 7.80031 9.46294 8.69569H10.9629ZM8.16216 5.69569C6.55141 5.69569 5.36138 7.10579 5.36138 8.69569H6.86138C6.86138 7.80031 7.50768 7.19569 8.16216 7.19569V5.69569Z" fill="black"/>
</svg>
